<svg width="17" height="17" viewBox="0 0 17 17" fill="none" xmlns="http://www.w3.org/2000/svg">
<path d="M8.49992 15.3333C4.54659 15.3333 1.33325 12.12 1.33325 8.16667C1.33325 4.21333 4.54659 1 8.49992 1C12.4533 1 15.6666 4.21333 15.6666 8.16667C15.6666 12.12 12.4533 15.3333 8.49992 15.3333ZM8.49992 2C5.09992 2 2.33325 4.76667 2.33325 8.16667C2.33325 11.5667 5.09992 14.3333 8.49992 14.3333C11.8999 14.3333 14.6666 11.5667 14.6666 8.16667C14.6666 4.76667 11.8999 2 8.49992 2Z" fill="white"/>
<path d="M8.5 9.33333C8.22667 9.33333 8 9.10667 8 8.83333V5.5C8 5.22667 8.22667 5 8.5 5C8.77333 5 9 5.22667 9 5.5V8.83333C9 9.10667 8.77333 9.33333 8.5 9.33333Z" fill="white"/>
<path d="M8.49992 11.4999C8.41325 11.4999 8.32659 11.4799 8.24659 11.4466C8.16659 11.4133 8.09325 11.3666 8.02659 11.3066C7.96659 11.2399 7.91992 11.1733 7.88659 11.0866C7.85325 11.0066 7.83325 10.9199 7.83325 10.8333C7.83325 10.7466 7.85325 10.6599 7.88659 10.5799C7.91992 10.4999 7.96659 10.4266 8.02659 10.3599C8.09325 10.2999 8.16659 10.2533 8.24659 10.2199C8.40659 10.1533 8.59325 10.1533 8.75325 10.2199C8.83325 10.2533 8.90659 10.2999 8.97325 10.3599C9.03325 10.4266 9.07992 10.4999 9.11325 10.5799C9.14659 10.6599 9.16659 10.7466 9.16659 10.8333C9.16659 10.9199 9.14659 11.0066 9.11325 11.0866C9.07992 11.1733 9.03325 11.2399 8.97325 11.3066C8.90659 11.3666 8.83325 11.4133 8.75325 11.4466C8.67325 11.4799 8.58659 11.4999 8.49992 11.4999Z" fill="white"/>
</svg>
