<svg width="232" height="29" viewBox="0 0 232 29" fill="none" xmlns="http://www.w3.org/2000/svg">
<path d="M144.709 12.3131C147.25 11.9566 149.838 12.0279 152.403 12.1705C153.923 12.2894 155.751 12.6697 156.487 14.191C157.295 15.9976 157.128 18.0418 157.2 19.9672C157.105 21.7262 157.128 23.8894 155.514 25.0066C153.733 26.1 151.524 25.791 149.53 25.8623C147.345 25.791 144.994 26.1476 142.999 25.1017C141.337 24.1033 141.313 21.9164 141.218 20.2049C141.195 18.3271 141.123 16.3541 141.717 14.5476C142.144 13.2402 143.451 12.5271 144.709 12.3131ZM145.374 14.6426C144.804 14.7377 144.258 15.0467 144.044 15.5935C143.474 16.9008 143.664 18.3508 143.617 19.7295C143.617 20.8467 143.64 22.1066 144.4 22.9623C145.35 23.5803 146.561 23.4853 147.654 23.5803C149.506 23.5566 151.382 23.723 153.21 23.3426C154.492 23.0336 154.777 21.5598 154.777 20.4189C154.73 18.9213 154.967 17.3762 154.516 15.9262C154.326 15.1894 153.638 14.6664 152.902 14.5476C151.714 14.3336 150.503 14.4287 149.316 14.4049C147.986 14.4525 146.656 14.3574 145.374 14.6426ZM162.139 13.0262C163.991 11.8853 166.247 12.2418 168.313 12.1705C170.022 12.0992 171.851 12.4795 173.109 13.7156C174.226 14.7615 174.582 16.3303 174.629 17.8041C174.653 20.4664 174.605 23.1287 174.653 25.791C173.869 25.8385 173.062 25.8385 172.278 25.8385C172.255 23.0336 172.278 20.2287 172.255 17.4238C172.231 16.3303 171.661 15.2844 170.687 14.7377C169.619 14.0959 168.337 14.2623 167.149 14.2385C166.128 14.2623 165.083 14.1197 164.133 14.5238C162.97 14.9517 162.139 16.0926 162.163 17.3287C162.139 20.1574 162.163 22.9861 162.163 25.8385H159.812C159.788 23.0812 159.812 20.3238 159.812 17.5664C159.74 15.8074 160.524 13.9295 162.139 13.0262ZM177.146 12.1943H179.497C179.545 14.9517 179.497 17.709 179.521 20.4664C179.568 21.3459 179.663 22.2967 180.257 22.9861C180.922 23.6279 181.919 23.6279 182.798 23.6992C185.101 23.723 187.428 23.6992 189.732 23.723V25.8623C187.333 25.8385 184.935 25.8623 182.537 25.8623C181.231 25.791 179.877 25.6246 178.737 24.9828C177.598 24.2221 177.36 22.7246 177.194 21.441C176.933 18.3508 177.241 15.2607 177.146 12.1943ZM191.252 12.1705C192.035 12.1943 192.795 12.1943 193.579 12.1705C193.65 16.7107 193.555 21.2746 193.626 25.8148C192.819 25.8623 192.011 25.8623 191.204 25.8148C191.275 21.2746 191.18 16.7107 191.252 12.1705ZM198.945 13.0262C200.798 11.8853 203.053 12.2418 205.119 12.1943C206.829 12.123 208.657 12.5033 209.892 13.7394C211.056 14.8328 211.412 16.5205 211.388 18.0894C211.365 20.6803 211.412 23.2713 211.365 25.8861C210.581 25.8623 209.797 25.8623 209.037 25.8861C208.99 23.0812 209.037 20.2762 209.014 17.4713C208.99 16.4017 208.42 15.332 207.494 14.809C206.117 14.0008 204.478 14.3812 202.958 14.2861C201.652 14.191 200.204 14.5713 199.444 15.7123C198.945 16.4016 198.898 17.2812 198.922 18.0894V25.8861H196.547V17.3762C196.594 15.641 197.426 13.882 198.945 13.0262ZM214.547 13.7394C215.71 12.1943 217.847 12.1943 219.604 12.123C222.145 12.1943 224.757 11.8615 227.227 12.5746C228.462 12.9074 229.625 13.7869 229.839 15.118C230.053 16.6869 229.982 18.3033 229.958 19.8721C225.232 19.8246 220.531 19.8959 215.805 19.8484C215.829 21.0131 215.829 22.4631 216.826 23.2476C218.037 23.8656 219.462 23.7467 220.792 23.7705C222.691 23.723 224.639 23.9131 226.515 23.5328C227.346 23.3664 227.702 22.5344 227.821 21.7738C228.557 21.7976 229.269 21.7976 230.005 21.7976C230.029 23.1525 229.578 24.7689 228.177 25.2918C226.277 25.9812 224.211 25.8148 222.217 25.8385C220.222 25.791 218.18 26.0049 216.233 25.4344C215.14 25.1254 214.262 24.2221 213.977 23.1287C213.549 21.5361 213.597 19.8959 213.597 18.2557C213.668 16.7582 213.644 15.0705 214.547 13.7394ZM216.945 14.7139C215.876 15.3082 215.853 16.7107 215.781 17.7803H227.702C227.702 17.0197 227.749 16.259 227.583 15.5221C227.369 14.8803 226.728 14.5238 226.111 14.4287C224.496 14.1672 222.858 14.3098 221.219 14.2623C219.818 14.2861 218.298 14.1435 216.945 14.7139Z" fill="#E30A17"/>
<path d="M44.9515 13.9295C45.5689 12.6459 47.0886 12.2418 48.3709 12.1943C50.888 12.1705 53.4289 12.1943 55.946 12.1943C57.252 12.218 58.6768 12.5033 59.5791 13.5254C60.2203 14.2148 60.3865 15.1893 60.3865 16.1164C59.5791 16.1164 58.748 16.1164 57.9406 16.1402C57.8931 15.1656 57.1095 14.4049 56.1597 14.3811C53.8088 14.3098 51.4342 14.3811 49.0833 14.3574C48.3709 14.3336 47.5161 14.6189 47.2786 15.3557C46.9462 16.0689 47.2311 17.0197 47.9672 17.3525C49.3445 18.0418 50.9355 17.8516 52.4315 17.8516C54.3075 17.709 56.2309 17.6139 58.0356 18.232C59.2229 18.6123 60.2203 19.6582 60.3865 20.918C60.529 22.1303 60.5052 23.4852 59.8166 24.5311C59.1279 25.5295 57.8456 25.8148 56.7296 25.8861C54.0225 25.9098 51.3155 25.8861 48.6321 25.8861C47.4211 25.8623 46.0913 25.5057 45.3314 24.5074C44.7615 23.7705 44.6428 22.8434 44.619 21.9402C45.4264 21.9639 46.21 21.9402 47.0174 21.9639C47.0174 22.9861 47.9197 23.6992 48.8933 23.7229C51.1017 23.7705 53.3339 23.7229 55.5423 23.7467C56.3259 23.7705 57.2757 23.6516 57.7744 22.9385C58.2731 22.1303 58.1069 20.918 57.2757 20.3951C56.4921 19.8959 55.5185 19.8721 54.5924 19.8008C51.8854 19.7533 49.0358 20.3475 46.4475 19.3016C44.4053 18.4221 44.1204 15.7361 44.9515 13.9295ZM64.7083 13.0262C66.6555 11.8852 69.0063 12.1229 71.1672 12.0754C73.0432 12.0992 75.0854 11.9803 76.7951 12.9787C78.0774 13.7156 78.9322 15.1656 78.9085 16.6631C78.7898 19.7295 78.861 22.7959 78.8372 25.8861H76.4151V24.7689C75.2041 25.7197 73.6368 26.0049 72.1171 25.9336C69.9087 25.8861 67.6766 26.1 65.5157 25.6008C64.3521 25.3631 63.426 24.4123 63.1648 23.2713C62.8086 21.7738 62.9036 20.0385 63.8534 18.8025C64.7558 17.7328 66.2518 17.5664 67.5341 17.4713C69.3863 17.4 71.2385 17.4713 73.0907 17.4475C74.2542 17.4238 75.489 17.5902 76.4389 18.327C76.3676 17.2336 76.3677 15.9738 75.5603 15.1656C74.3255 14.2385 72.6395 14.4762 71.191 14.4287C69.6237 14.5 67.9853 14.2148 66.4892 14.8328C65.8006 15.0705 65.4207 15.7361 65.3732 16.4492H62.9748C62.9036 15.0705 63.521 13.668 64.7083 13.0262ZM68.4127 19.5631C67.7003 19.6107 66.9167 19.6344 66.2755 20.0148C65.0645 20.6803 65.0645 22.8197 66.418 23.3189C67.6528 23.7467 68.9588 23.6279 70.2411 23.6516C71.9034 23.6041 73.6131 23.8418 75.2041 23.2713C76.3914 22.8434 76.7713 21.1557 75.8927 20.2525C75.2753 19.6582 74.373 19.5869 73.5656 19.5631C71.8559 19.5631 70.1224 19.5393 68.4127 19.5631ZM81.1644 12.1705H83.5152C83.5627 14.9279 83.3728 17.6615 83.4915 20.4189C83.5865 21.3459 83.634 22.4393 84.3701 23.1049C85.0825 23.5803 85.9848 23.6516 86.8397 23.6992H93.7261C93.7261 24.4123 93.7261 25.1254 93.7024 25.8623C91.1378 25.8148 88.5732 25.9098 86.0086 25.8148C84.6076 25.6721 82.9453 25.5057 82.0192 24.3172C81.2356 23.1049 81.1406 21.6074 81.0694 20.2049C81.0931 17.5189 81.0931 14.8566 81.1644 12.1705ZM96.1957 12.7648C97.9529 12.0279 99.9238 12.123 101.8 12.123C104.032 12.1467 106.359 11.9328 108.449 12.8598C109.494 13.3115 110.301 14.3098 110.396 15.4746C110.538 16.9246 110.443 18.3984 110.467 19.8721H96.2669C96.3857 21.0369 96.2907 22.5107 97.3355 23.2713C98.6415 23.8893 100.161 23.7467 101.562 23.7943C103.391 23.7467 105.243 23.9607 107.048 23.5328C107.831 23.3664 108.211 22.5582 108.259 21.8213H110.491C110.515 22.9861 110.23 24.341 109.209 25.0303C108.14 25.7197 106.834 25.7434 105.599 25.8385C103.533 25.8861 101.491 25.8623 99.4252 25.8623C98.1429 25.791 96.7419 25.7197 95.6495 24.9352C94.7709 24.2934 94.3672 23.2 94.2485 22.1541C93.9873 20.0861 94.011 17.9705 94.2723 15.9025C94.4385 14.6426 95.0084 13.3115 96.1957 12.7648ZM97.2168 14.8803C96.4094 15.5934 96.4094 16.7582 96.2907 17.7328C100.28 17.8041 104.246 17.7328 108.235 17.7803C108.235 16.9959 108.306 16.2115 108.14 15.4746C107.831 14.6664 106.905 14.4049 106.145 14.3574C104.246 14.191 102.322 14.3098 100.423 14.2623C99.3064 14.3098 98.1429 14.2623 97.2168 14.8803ZM116.142 12.1943C118.66 12.1467 121.153 12.1943 123.67 12.1705C124.976 12.1943 126.401 12.432 127.351 13.4066C128.039 14.1197 128.206 15.1418 128.277 16.0689C127.446 16.0926 126.615 16.0926 125.783 16.0926C125.76 14.9754 124.715 14.2861 123.67 14.3098C121.248 14.3098 118.802 14.2623 116.38 14.3336C115.026 14.4049 114.456 16.3541 115.549 17.1385C116.807 17.9943 118.422 17.8041 119.871 17.8041C122.055 17.709 124.382 17.4475 126.425 18.3984C127.564 18.9213 128.229 20.1336 128.301 21.3697C128.372 22.6533 128.182 24.1746 127.137 25.0541C125.997 25.8623 124.525 25.8623 123.195 25.8385H116.309C115.169 25.791 113.91 25.4344 113.174 24.4836C112.604 23.7705 112.486 22.8197 112.414 21.9164C113.222 21.8926 114.029 21.9164 114.813 21.8926C114.813 22.891 115.644 23.6041 116.594 23.6516C118.707 23.7229 120.82 23.6516 122.934 23.6754C123.718 23.6754 124.62 23.7229 125.261 23.2C126.068 22.4869 126.021 20.9656 125.095 20.3713C124.335 19.8484 123.361 19.8246 122.483 19.7533C119.752 19.7295 116.831 20.3475 114.219 19.2779C112.272 18.3984 111.987 15.8074 112.747 14.0246C113.293 12.6934 114.836 12.2656 116.142 12.1943ZM131.079 18.7787H138.203V20.8705H131.079V18.7787Z" fill="white"/>
<path d="M5.22412 10.0787H40.5347V27.5024H5.22412V10.0787Z" fill="white"/>
<path d="M12.9417 0H16.6224C16.5511 0.903279 16.5749 1.83033 16.5749 2.75738C18.4746 1.87787 20.4217 1.09344 22.3214 0.190164C22.3927 0.142623 22.5114 0.047541 22.5589 0H22.7014C22.7489 0.047541 22.8201 0.142623 22.8676 0.213934C29.849 3.44672 36.9016 6.51312 43.883 9.72213C43.0043 9.7459 42.1257 9.7459 41.2709 9.7459V27.7639H3.9894C3.96566 21.8213 3.9894 15.8787 3.9894 9.93607H1.32983C5.17671 7.96312 9.07108 6.08525 12.9417 4.15984C12.9655 2.75738 12.9417 1.37869 12.9417 0ZM5.93659 12.1943V25.8623H8.23997C8.26371 24.1271 8.23997 22.4156 8.23997 20.6803C10.9945 20.7041 13.7728 20.5377 16.5274 20.6566C17.3822 20.6803 18.2846 21.1082 18.5458 21.9639C18.9257 23.2238 18.6883 24.5549 18.7358 25.8623H21.0866C21.0866 24.4598 21.1579 23.0336 21.0391 21.6074C20.9679 20.7041 20.4692 19.8246 19.6144 19.4205C20.113 18.9213 20.5405 18.3033 20.588 17.5902C20.7304 16.259 20.7067 14.809 19.9706 13.6443C19.2344 12.5271 17.7859 12.2418 16.5511 12.1705C13.0367 12.1705 9.49851 12.1943 5.93659 12.1943ZM25.1947 12.7172C23.9599 13.2402 23.295 14.5475 23.1526 15.8311C22.8913 17.7566 22.8913 19.7295 23.0576 21.6549C23.1526 22.891 23.5325 24.2459 24.6011 24.9828C25.7171 25.6959 27.1182 25.791 28.4242 25.8385C30.4664 25.8385 32.5085 25.8623 34.5507 25.8148C35.833 25.6959 37.234 25.6721 38.3026 24.8402C39.1575 24.0795 39.3474 22.891 39.3712 21.7975H37.1628C37.0678 22.582 36.6641 23.3664 35.833 23.5328C33.9571 23.8893 32.0099 23.6992 30.0864 23.7467C28.7804 23.723 27.3556 23.818 26.1683 23.2C25.1947 22.3918 25.1947 20.9656 25.1947 19.8008C29.8965 19.8484 34.622 19.7771 39.3237 19.8484C39.3712 18.3746 39.4187 16.8771 39.2762 15.4033C39.1812 14.3574 38.5163 13.4066 37.5665 12.9549C35.6193 11.9803 33.3872 12.123 31.2975 12.123C29.2553 12.1467 27.1419 11.9566 25.1947 12.7172Z" fill="#E30A17"/>
<path d="M26.1683 14.809C27.1419 14.2623 28.3054 14.2861 29.3978 14.2623C31.2974 14.3098 33.2209 14.1672 35.1206 14.3574C35.8567 14.4287 36.7116 14.6901 36.9728 15.4746C37.139 16.2115 37.1153 16.9959 37.139 17.7565C33.1496 17.8516 29.184 17.7328 25.1947 17.8041C25.2184 16.7582 25.2897 15.5221 26.1683 14.809ZM8.26367 14.5475C10.8757 14.5713 13.4878 14.5475 16.0762 14.5475C16.8123 14.5475 17.6672 14.6664 18.1183 15.332C18.522 16.0213 18.4508 16.9483 17.9996 17.6139C17.5959 18.0893 16.9548 18.2795 16.3374 18.2557C13.6541 18.2557 10.947 18.232 8.26367 18.2557V14.5475Z" fill="#E30A17"/>
</svg>
