<svg width="42" height="28" viewBox="0 0 42 28" fill="none" xmlns="http://www.w3.org/2000/svg">
<path d="M3.84381 9.9375H38.6954V27.1172H3.84381V9.9375Z" fill="white"/>
<path d="M11.4609 0H15.0938C15.0234 0.890625 15.0469 1.80469 15.0469 2.71875C16.9219 1.85156 18.8438 1.07813 20.7188 0.1875C20.7891 0.140625 20.9063 0.046875 20.9531 0H21.0938C21.1406 0.046875 21.2109 0.140625 21.2578 0.210938C28.1484 3.39844 35.1094 6.42188 42 9.58594C41.1328 9.60938 40.2656 9.60938 39.4219 9.60938V27.375H2.625C2.60156 21.5156 2.625 15.6563 2.625 9.79688H0C3.79688 7.85156 7.64063 6 11.4609 4.10156C11.4844 2.71875 11.4609 1.35938 11.4609 0ZM4.54687 12.0234V25.5H6.82031C6.84375 23.7891 6.82031 22.1016 6.82031 20.3906C9.53906 20.4141 12.2812 20.25 15 20.3672C15.8437 20.3906 16.7344 20.8125 16.9922 21.6563C17.3672 22.8984 17.1328 24.2109 17.1797 25.5H19.5C19.5 24.1172 19.5703 22.7109 19.4531 21.3047C19.3828 20.4141 18.8906 19.5469 18.0469 19.1484C18.5391 18.6563 18.9609 18.0469 19.0078 17.3438C19.1484 16.0313 19.125 14.6016 18.3984 13.4531C17.6719 12.3516 16.2422 12.0703 15.0234 12C11.5547 12 8.0625 12.0234 4.54687 12.0234ZM23.5547 12.5391C22.3359 13.0547 21.6797 14.3438 21.5391 15.6094C21.2813 17.5078 21.2813 19.4531 21.4453 21.3516C21.5391 22.5703 21.9141 23.9063 22.9688 24.6328C24.0703 25.3359 25.4531 25.4297 26.7422 25.4766C28.7578 25.4766 30.7734 25.5 32.7891 25.4531C34.0547 25.3359 35.4375 25.3125 36.4922 24.4922C37.3359 23.7422 37.5234 22.5703 37.5469 21.4922H35.3672C35.2734 22.2656 34.875 23.0391 34.0547 23.2031C32.2031 23.5547 30.2812 23.3672 28.3828 23.4141C27.0937 23.3906 25.6875 23.4844 24.5156 22.875C23.5547 22.0781 23.5547 20.6719 23.5547 19.5234C28.1953 19.5703 32.8594 19.5 37.5 19.5703C37.5469 18.1172 37.5937 16.6406 37.4531 15.1875C37.3594 14.1563 36.7031 13.2188 35.7656 12.7734C33.8437 11.8125 31.6406 11.9531 29.5781 11.9531C27.5625 11.9766 25.4766 11.7891 23.5547 12.5391Z" fill="#E30A17"/>
<path d="M24.5156 14.6018C25.4766 14.0628 26.625 14.0862 27.7031 14.0628C29.5781 14.1097 31.4766 13.969 33.3516 14.1565C34.0781 14.2268 34.9219 14.4847 35.1797 15.2581C35.3437 15.9847 35.3203 16.7581 35.3437 17.5081C31.4062 17.6018 27.4922 17.4847 23.5547 17.555C23.5781 16.5237 23.6484 15.305 24.5156 14.6018ZM6.84375 14.344C9.42187 14.3675 12 14.344 14.5547 14.344C15.2812 14.344 16.125 14.4612 16.5703 15.1175C16.9688 15.7972 16.8984 16.7112 16.4531 17.3675C16.0547 17.8362 15.4219 18.0237 14.8125 18.0003C12.1641 18.0003 9.49219 17.9768 6.84375 18.0003V14.344Z" fill="#E30A17"/>
</svg>
